<svg width="64" height="64" viewBox="0 0 64 64" fill="none" xmlns="http://www.w3.org/2000/svg">
<g id="map 1" clip-path="url(#clip0_8_532)">
<g id="Group">
<path id="Vector" d="M63.5 64H0.5C0.223875 64 0 63.7761 0 63.5V16.0815C0 15.8054 0.223875 15.5815 0.5 15.5815H63.5C63.7761 15.5815 64 15.8054 64 16.0815V63.5C64 63.7761 63.7761 64 63.5 64Z" fill="#F3F3F3"/>
<path id="Vector_2" d="M60.1369 15.5815V64H63.5C63.7761 64 64 63.7761 64 63.5V16.0815C64 15.8054 63.7761 15.5815 63.5 15.5815H60.1369Z" fill="#E4E4E4"/>
<path id="Vector_3" d="M3.86312 59.6369V19.9446C3.86312 19.6685 4.087 19.4446 4.36312 19.4446H59.6367C59.9129 19.4446 60.1367 19.6685 60.1367 19.9446V59.6368C60.1367 59.9129 59.9129 60.1368 59.6367 60.1368H4.36312C4.087 60.1369 3.86312 59.913 3.86312 59.6369Z" fill="#29CEF6"/>
<path id="Vector_4" d="M56.2736 19.4446V60.1368H59.6367C59.9129 60.1368 60.1367 59.9129 60.1367 59.6368V19.9446C60.1367 19.6685 59.9129 19.4446 59.6367 19.4446H56.2736Z" fill="#22B5ED"/>
<path id="Vector_5" d="M60.1369 31.4008C57.7566 30.5043 55.2999 29.8201 53.0554 29.2098C32.1866 25.8481 35.0336 40.6217 22.3102 45.4446C17.333 46.7365 11.8006 44.0518 6.96775 45.7657C5.72075 46.3277 4.694 47.0081 3.86325 47.7741V59.6367C3.86325 59.9128 4.08713 60.1367 4.36325 60.1367H59.6369C59.913 60.1367 60.1369 59.9128 60.1369 59.6367V31.4008Z" fill="#FFD54F"/>
<g id="Group_2">
<path id="Vector_6" d="M56.2736 30.1177V60.1367H59.6367C59.9129 60.1367 60.1367 59.9129 60.1367 59.6367V31.4009C58.856 30.9184 57.5539 30.4987 56.2736 30.1177Z" fill="#FFC328"/>
</g>
<path id="Vector_7" d="M3.86312 19.9446V33.8588C6.30375 33.6711 8.779 33.8841 11.2139 34.0136C26.945 35.559 25.4517 24.6803 36.6765 19.4446H4.36312C4.087 19.4446 3.86312 19.6685 3.86312 19.9446Z" fill="#9CCC65"/>
<g id="Group_3">
<path id="Vector_8" d="M32.8134 19.4446C22.859 24.0878 22.905 33.1674 12.0718 34.0858C26.8921 35.1551 25.6605 24.583 36.6766 19.4446H32.8134Z" fill="#8BC34A"/>
</g>
<path id="Vector_9" d="M57.8122 14.1175C57.8122 22.7003 51.816 24.8308 48.8921 29.9848C45.9682 35.1388 46.1165 38.6319 43.776 38.6319C41.5196 38.6319 41.5172 34.8823 38.6599 29.9848C35.5897 24.7225 29.7397 22.7003 29.7397 14.1175C29.7399 6.32063 36.0241 0 43.7761 0C51.5281 0 57.8122 6.32063 57.8122 14.1175Z" fill="#F75632"/>
<path id="Vector_10" d="M43.7761 0C43.1206 0 42.4761 0.04625 41.8445 0.133625C48.6822 1.08037 53.9491 6.97975 53.9491 14.1174C53.9491 22.7001 47.9529 24.8306 45.029 29.9846C43.266 33.0921 42.6197 35.5942 41.8716 37.0926C42.3662 38.067 42.9019 38.6317 43.7761 38.6317C46.1165 38.6317 45.9682 35.1386 48.8921 29.9846C51.8161 24.8306 57.8122 22.7001 57.8122 14.1174C57.8122 6.32063 51.5281 0 43.7761 0Z" fill="#E33629"/>
<g id="Group_4">
<path id="Vector_11" d="M45.1019 42.8714L46.4925 41.4808C46.8586 41.1147 46.8586 40.5211 46.4924 40.155C46.1264 39.789 45.5328 39.7889 45.1666 40.1551L43.7761 41.5458L42.3856 40.1551C42.0195 39.7889 41.4259 39.789 41.0599 40.155C40.6936 40.5213 40.6936 41.1148 41.0597 41.4808L42.4504 42.8714L41.0597 44.262C40.6936 44.6282 40.6936 45.2216 41.0599 45.5878C41.2429 45.7708 41.4829 45.8623 41.7228 45.8623C41.9626 45.8623 42.2026 45.7708 42.3857 45.5876L43.7762 44.197L45.1668 45.5876C45.3499 45.7708 45.5897 45.8623 45.8297 45.8623C46.0696 45.8623 46.3096 45.7708 46.4926 45.5878C46.8589 45.2215 46.8589 44.628 46.4927 44.262L45.1019 42.8714Z" fill="#546E7A"/>
<path id="Vector_12" d="M44.4174 47.2303C43.9627 46.9826 43.3934 47.1506 43.1457 47.6054C43.0276 47.8224 42.9092 48.0357 42.7899 48.2448C42.5331 48.6944 42.6896 49.2671 43.1394 49.5237C43.286 49.6073 43.4456 49.6471 43.6032 49.6471C43.9287 49.6471 44.2454 49.4773 44.4184 49.1742C44.5439 48.9543 44.6682 48.7301 44.7925 48.5018C45.04 48.0472 44.8721 47.4778 44.4174 47.2303Z" fill="#546E7A"/>
<path id="Vector_13" d="M22.3966 51.4746C21.9149 51.4705 21.4256 51.4761 20.937 51.4926C20.4195 51.5104 20.0142 51.944 20.0319 52.4615C20.0492 52.9682 20.4652 53.3671 20.9682 53.3671C20.979 53.3671 20.9899 53.367 21.0007 53.3666C21.4622 53.3509 21.924 53.3454 22.379 53.3496H22.388C22.9015 53.3496 23.3204 52.9355 23.3252 52.4209C23.3301 51.9031 22.9142 51.4795 22.3966 51.4746Z" fill="#546E7A"/>
<path id="Vector_14" d="M17.3006 51.8159C16.8146 51.8863 16.3291 51.9679 15.8575 52.0584C15.349 52.156 15.0161 52.6475 15.1138 53.1559C15.1999 53.6047 15.5928 53.9167 16.0333 53.9167C16.092 53.9167 16.1515 53.9112 16.2113 53.8997C16.6548 53.8144 17.1115 53.7377 17.5691 53.6715C18.0816 53.5974 18.4367 53.1219 18.3628 52.6094C18.2886 52.097 17.8126 51.741 17.3006 51.8159Z" fill="#546E7A"/>
<path id="Vector_15" d="M12.3054 52.9745C11.8302 53.1317 11.3634 53.302 10.9175 53.4809C10.4369 53.6735 10.2035 54.2192 10.3962 54.6999C10.5431 55.0661 10.8949 55.2887 11.2666 55.2887C11.3829 55.2887 11.5009 55.267 11.6152 55.2211C12.0254 55.0567 12.4559 54.8997 12.8944 54.7546C13.386 54.592 13.6525 54.0616 13.4899 53.57C13.3274 53.0786 12.7975 52.8117 12.3054 52.9745Z" fill="#546E7A"/>
<path id="Vector_16" d="M37.0082 52.8662C36.603 52.9379 36.1671 52.9863 35.713 53.0099C35.1959 53.0371 34.7986 53.4779 34.8255 53.9951C34.8516 54.4956 35.2656 54.8837 35.7609 54.8837C35.7774 54.8837 35.794 54.8833 35.8105 54.8824C36.3414 54.8547 36.8544 54.7974 37.335 54.7123C37.8449 54.6221 38.185 54.1356 38.0946 53.6258C38.0046 53.1159 37.5182 52.7753 37.0082 52.8662Z" fill="#546E7A"/>
<path id="Vector_17" d="M40.8651 50.9138C40.5594 51.2204 40.2469 51.4826 39.9097 51.7156C39.4839 52.01 39.3774 52.594 39.6719 53.02C39.8539 53.2831 40.1464 53.4244 40.4439 53.4244C40.6277 53.4244 40.8135 53.3704 40.9762 53.2579C41.4016 52.9636 41.8109 52.6206 42.1925 52.2383C42.5581 51.8716 42.5575 51.278 42.191 50.9124C41.8244 50.5465 41.2309 50.5473 40.8651 50.9138Z" fill="#546E7A"/>
<path id="Vector_18" d="M32.3415 52.8366C31.919 52.7825 31.4699 52.7165 30.9687 52.6349C30.4576 52.5516 29.976 52.8984 29.8927 53.4094C29.8095 53.9204 30.1561 54.4021 30.6672 54.4854C31.1897 54.5706 31.6595 54.6395 32.1035 54.6964C32.1439 54.7015 32.184 54.7041 32.2237 54.7041C32.6885 54.7041 33.0919 54.3586 33.1525 53.8855C33.2181 53.3722 32.8552 52.9025 32.3415 52.8366Z" fill="#546E7A"/>
<path id="Vector_19" d="M27.4851 52.0143C26.9486 51.9199 26.483 51.8431 26.0615 51.7794C25.5516 51.7024 25.0717 52.0544 24.9946 52.5666C24.9174 53.0786 25.2697 53.5562 25.7817 53.6334C26.1879 53.6947 26.6386 53.7692 27.1599 53.8609C27.2149 53.8706 27.2696 53.8752 27.3236 53.8752C27.7701 53.8752 28.1656 53.5551 28.2459 53.1002C28.3356 52.5903 27.995 52.1042 27.4851 52.0143Z" fill="#546E7A"/>
<path id="Vector_20" d="M7.60112 55.1839C7.37562 55.3314 7.1545 55.4845 6.9435 55.6393C6.526 55.9454 6.43575 56.5321 6.742 56.9496C6.92575 57.2001 7.21025 57.3328 7.49875 57.3328C7.69112 57.3328 7.88537 57.2736 8.0525 57.1511C8.23662 57.0161 8.43012 56.8821 8.62787 56.7526C9.06112 56.4691 9.18262 55.8881 8.899 55.4549C8.6155 55.0218 8.03412 54.9001 7.60112 55.1839Z" fill="#546E7A"/>
</g>
<path id="Vector_21" d="M43.7761 20.4252C47.3083 20.4252 50.1716 17.5618 50.1716 14.0297C50.1716 10.4975 47.3083 7.63416 43.7761 7.63416C40.244 7.63416 37.3806 10.4975 37.3806 14.0297C37.3806 17.5618 40.244 20.4252 43.7761 20.4252Z" fill="#F3F3F3"/>
</g>
</g>
<defs>
<clipPath id="clip0_8_532">
<rect width="64" height="64" fill="white"/>
</clipPath>
</defs>
</svg>
