<svg width="64" height="64" viewBox="0 0 64 64" fill="none" xmlns="http://www.w3.org/2000/svg">
<g id="price-tag 1" clip-path="url(#clip0_8_486)">
<g id="Group">
<path id="Vector" d="M34.7023 13.4254L23.7179 6.26559H13.563L2.57857 13.4242C0.971161 14.4724 0.00250244 16.2624 0.00250244 18.1808V58.3234C0.00250244 60.139 0.852197 61.7547 2.17888 62.7937C3.14202 63.5487 4.35927 64 5.67905 64H31.6019C32.9528 64 34.1931 63.5299 35.1657 62.7423C36.4572 61.7021 37.2799 60.1094 37.2799 58.3234V18.1808C37.2799 16.2624 36.31 14.4724 34.7023 13.4254ZM18.6412 19.306C16.3568 19.3047 14.5047 17.4525 14.5047 15.1695C14.506 12.8851 16.3581 11.033 18.6412 11.033C20.9242 11.033 22.7763 12.8851 22.7777 15.1695C22.7777 17.4525 20.9256 19.3047 18.6412 19.306Z" fill="url(#paint0_linear_8_486)"/>
<path id="Vector_2" d="M6.57882 30.4674C14.9143 30.4674 21.7781 24.1713 22.6768 16.0757C22.2633 17.923 20.614 19.3049 18.6412 19.306C16.3568 19.3047 14.5047 17.4525 14.5047 15.1695C14.506 12.8851 16.3581 11.033 18.6412 11.033C20.8231 11.033 22.6102 12.725 22.7655 14.869C22.7728 14.6696 22.7777 14.4695 22.7777 14.2684C22.7777 11.3575 22.0093 8.62632 20.6652 6.26547H13.5631L2.57869 13.4241C0.971161 14.4724 0.00250244 16.2624 0.00250244 18.1808V29.0758C2.01223 29.9698 4.23729 30.4674 6.57882 30.4674Z" fill="url(#paint1_linear_8_486)"/>
<path id="Vector_3" d="M5.92778 26.3713V64H31.6019C32.9528 64 34.1931 63.5299 35.1657 62.7424C36.4572 61.7022 37.2799 60.1094 37.2799 58.3235V26.3713H5.92778Z" fill="url(#paint2_linear_8_486)"/>
<path id="Vector_4" d="M0.00250244 50.2216V58.3235C0.00250244 60.139 0.852197 61.7547 2.17888 62.7937C3.14202 63.5487 4.35927 64 5.67905 64H31.6019C32.9528 64 34.1931 63.5299 35.1657 62.7423C36.4572 61.7022 37.2799 60.1094 37.2799 58.3235V50.2216H0.00250244Z" fill="url(#paint3_linear_8_486)"/>
<g id="Group_2">
<path id="Vector_5" d="M62.3346 32.5045L33.9492 4.11909C32.5929 2.76279 30.6424 2.18277 28.7645 2.57882L13.6256 5.77079C11.424 6.2341 9.70515 7.95294 9.24184 10.1545L6.05 25.2932C5.65395 27.1711 6.23397 29.1216 7.59026 30.4779L35.9756 58.8633C37.2594 60.1471 39.003 60.6882 40.6759 60.4849C41.8908 60.3381 43.0702 59.7971 44.0039 58.8633L62.3345 40.5327C63.2893 39.5779 63.8341 38.3683 63.9649 37.1234C64.1418 35.4753 63.5972 33.7672 62.3346 32.5045ZM21.5655 18.0943C19.9492 19.7087 17.3303 19.7087 15.7158 18.0943C14.1013 16.478 14.1013 13.8591 15.7158 12.2446C17.3303 10.6301 19.9492 10.6301 21.5655 12.2446C23.1799 13.8591 23.1799 16.4781 21.5655 18.0943Z" fill="url(#paint4_linear_8_486)"/>
<path id="Vector_6" d="M20.0542 19.052V42.9417L7.59063 30.4782C6.23434 29.1219 5.65344 27.1711 6.05062 25.2933L7.75139 17.2229H15.0504C15.2273 17.535 15.4503 17.8281 15.7164 18.0942C16.8891 19.2669 18.5912 19.583 20.0542 19.052Z" fill="url(#paint5_linear_8_486)"/>
<g id="Group_3">
<path id="Vector_7" d="M63.965 37.1234C63.8341 38.3682 63.2895 39.5778 62.3346 40.5327L44.0039 58.8634C43.0702 59.7971 41.8907 60.3382 40.6759 60.485L29.003 48.8122C28.3151 48.4284 27.9066 47.7035 27.9066 47.0332C27.9066 46.8016 27.9844 46.5292 28.1011 46.2976L41.7068 18.3489C42.0162 17.6893 42.6369 17.3799 43.3336 17.3799C44.1346 17.3799 44.9976 17.8237 45.3956 18.5541L63.965 37.1234Z" fill="url(#paint6_linear_8_486)"/>
<path id="Vector_8" d="M57.309 45.5585L46.3894 56.478L23.7494 33.8378C22.6477 33.0155 21.9757 31.6858 21.9757 29.7069V24.202C21.9757 20.3648 24.4956 18.9695 27.7899 18.9695C29.8518 18.9695 31.6326 19.53 32.6635 20.9129L57.309 45.5585Z" fill="url(#paint7_linear_8_486)"/>
<path id="Vector_9" d="M59.9667 42.9006L49.0472 53.8201L41.5088 46.2799C40.4071 45.4576 39.7351 44.1296 39.7351 42.149V36.6442C39.7351 32.8068 42.2549 31.4116 45.5494 31.4116C47.6113 31.4116 49.392 31.9722 50.4212 33.3568L59.9667 42.9006Z" fill="url(#paint8_linear_8_486)"/>
<g id="Group_4">
<path id="Vector_10" d="M21.8191 29.5492V24.0448C21.8191 20.2073 24.3387 18.8119 27.6334 18.8119C30.8895 18.8119 33.448 20.2073 33.448 24.0448V29.5492C33.448 33.3867 30.8895 34.7821 27.6334 34.7821C24.3387 34.7821 21.8191 33.3867 21.8191 29.5492ZM29.5716 24.0448C29.5716 22.7657 28.8351 22.1842 27.6334 22.1842C26.4319 22.1842 25.7341 22.7657 25.7341 24.0448V29.5492C25.7341 30.8283 26.4317 31.4098 27.6334 31.4098C28.8352 31.4098 29.5716 30.8283 29.5716 29.5492V24.0448ZM45.4643 19.2771C45.4643 19.5097 45.4256 19.781 45.3092 20.0137L31.6648 47.9616C31.3935 48.5431 30.657 48.9306 29.9205 48.9306C28.6026 48.9306 27.7496 47.8454 27.7496 46.8762C27.7496 46.6437 27.8273 46.3723 27.9435 46.1397L41.5492 18.1918C41.8594 17.5329 42.4795 17.2227 43.1773 17.2227C44.2626 17.2225 45.4643 18.0366 45.4643 19.2771ZM39.6112 42.0307V36.5264C39.6112 32.6889 42.1308 31.2935 45.4256 31.2935C48.6816 31.2935 51.2399 32.6889 51.2399 36.5264V42.0307C51.2399 45.8683 48.6816 47.2638 45.4256 47.2638C42.1308 47.2638 39.6112 45.8683 39.6112 42.0307ZM47.3636 36.5264C47.3636 35.2473 46.6271 34.6658 45.4256 34.6658C44.224 34.6658 43.5261 35.2473 43.5261 36.5264V42.0307C43.5261 43.3099 44.224 43.8913 45.4256 43.8913C46.6271 43.8913 47.3636 43.3099 47.3636 42.0307V36.5264Z" fill="url(#paint9_linear_8_486)"/>
</g>
</g>
</g>
<path id="Vector_11" d="M21.566 12.2447C20.7163 11.3976 19.5923 10.9951 18.4804 11.0384C18.0819 13.2349 16.5784 15.0493 14.5682 15.8842C13.8035 16.2017 12.9646 16.3772 12.0852 16.3772C10.6303 16.3772 9.28477 15.8963 8.20128 15.0871C6.61396 13.8995 5.58456 12.0056 5.58456 9.87658C5.58456 6.29258 8.49983 3.37732 12.0852 3.37732C13.8117 3.37732 15.3815 4.05283 16.546 5.15514L20.28 4.36756C18.5034 1.73453 15.4921 0 12.0852 0C6.63818 0 2.20724 4.42968 2.20724 9.87658C2.20724 13.6537 4.33769 16.9433 7.46102 18.6035C8.84166 19.3384 10.4154 19.7545 12.0852 19.7545C13.6725 19.7545 15.1734 19.3776 16.5027 18.709C19.0262 17.4431 20.9352 15.125 21.6511 12.3353C21.624 12.3042 21.5956 12.2744 21.566 12.2447Z" fill="url(#paint10_linear_8_486)"/>
<path id="Vector_12" d="M18.4804 11.0384C18.0819 13.235 16.5784 15.0493 14.5681 15.8842C13.8035 16.2017 12.9646 16.3772 12.0852 16.3772C11.7326 16.3772 11.3866 16.3485 11.049 16.2942V19.6996C11.3897 19.7352 11.7352 19.7546 12.0852 19.7546C13.6725 19.7546 15.1734 19.3776 16.5027 18.709C19.0262 17.4432 20.9351 15.125 21.6511 12.3353C21.6241 12.3042 21.5957 12.2745 21.566 12.2448C20.7162 11.3978 19.5923 10.9952 18.4804 11.0384Z" fill="url(#paint11_linear_8_486)"/>
<path id="Vector_13" d="M12.0852 0C11.7352 0 11.3897 0.018949 11.049 0.0545882V3.46077C11.3866 3.40656 11.7324 3.37732 12.0852 3.37732C13.8117 3.37732 15.3815 4.05283 16.546 5.15514L20.28 4.36756C18.5034 1.73453 15.4921 0 12.0852 0Z" fill="url(#paint12_linear_8_486)"/>
</g>
</g>
<defs>
<linearGradient id="paint0_linear_8_486" x1="2.7914" y1="22.4031" x2="38.9825" y2="58.5943" gradientUnits="userSpaceOnUse">
<stop stop-color="#FEE45A"/>
<stop offset="1" stop-color="#FEA613"/>
</linearGradient>
<linearGradient id="paint1_linear_8_486" x1="3.97201" y1="26.9453" x2="17.7513" y2="10.5992" gradientUnits="userSpaceOnUse">
<stop stop-color="#FEA613" stop-opacity="0"/>
<stop offset="1" stop-color="#E94444"/>
</linearGradient>
<linearGradient id="paint2_linear_8_486" x1="11.8434" y1="48.8611" x2="25.4877" y2="42.2416" gradientUnits="userSpaceOnUse">
<stop stop-color="#FEA613" stop-opacity="0"/>
<stop offset="1" stop-color="#E94444"/>
</linearGradient>
<linearGradient id="paint3_linear_8_486" x1="18.6412" y1="58.3207" x2="18.6412" y2="65.0807" gradientUnits="userSpaceOnUse">
<stop stop-color="#FEA613" stop-opacity="0"/>
<stop offset="1" stop-color="#E94444"/>
</linearGradient>
<linearGradient id="paint4_linear_8_486" x1="12.4418" y1="8.97066" x2="66.5328" y2="63.0616" gradientUnits="userSpaceOnUse">
<stop stop-color="#8AC9FE"/>
<stop offset="1" stop-color="#814AA0"/>
</linearGradient>
<linearGradient id="paint5_linear_8_486" x1="14.9408" y1="26.424" x2="4.63045" y2="17.2032" gradientUnits="userSpaceOnUse">
<stop stop-color="#5B3374" stop-opacity="0"/>
<stop offset="1" stop-color="#5B3374"/>
</linearGradient>
<linearGradient id="paint6_linear_8_486" x1="51.2587" y1="43.4022" x2="28.7124" y2="32.1732" gradientUnits="userSpaceOnUse">
<stop stop-color="#5B3374" stop-opacity="0"/>
<stop offset="1" stop-color="#5B3374"/>
</linearGradient>
<linearGradient id="paint7_linear_8_486" x1="34.7032" y1="36.0993" x2="19.5874" y2="28.7826" gradientUnits="userSpaceOnUse">
<stop stop-color="#5B3374" stop-opacity="0"/>
<stop offset="1" stop-color="#5B3374"/>
</linearGradient>
<linearGradient id="paint8_linear_8_486" x1="56.9966" y1="46.8386" x2="37.987" y2="37.6433" gradientUnits="userSpaceOnUse">
<stop stop-color="#5B3374" stop-opacity="0"/>
<stop offset="1" stop-color="#5B3374"/>
</linearGradient>
<linearGradient id="paint9_linear_8_486" x1="21.8191" y1="33.0766" x2="33.448" y2="33.0766" gradientUnits="userSpaceOnUse">
<stop stop-color="#EAF6FF"/>
<stop offset="1" stop-color="#B3DAFE"/>
</linearGradient>
<linearGradient id="paint10_linear_8_486" x1="4.5824" y1="2.37465" x2="16.2727" y2="14.0651" gradientUnits="userSpaceOnUse">
<stop stop-color="#B3DAFE"/>
<stop offset="1" stop-color="#4FC123"/>
</linearGradient>
<linearGradient id="paint11_linear_8_486" x1="16.2722" y1="15.361" x2="20.6032" y2="11.0301" gradientUnits="userSpaceOnUse">
<stop stop-color="#4FC123" stop-opacity="0"/>
<stop offset="1" stop-color="#017B4E"/>
</linearGradient>
<linearGradient id="paint12_linear_8_486" x1="13.8432" y1="1.20696" x2="17.1756" y2="6.16044" gradientUnits="userSpaceOnUse">
<stop stop-color="#4FC123" stop-opacity="0"/>
<stop offset="1" stop-color="#017B4E"/>
</linearGradient>
<clipPath id="clip0_8_486">
<rect width="64" height="64" fill="white"/>
</clipPath>
</defs>
</svg>
